<mxfile host="app.diagrams.net" modified="2020-12-03T16:46:06.179Z" agent="5.0 (Windows NT 10.0; Win64; x64) AppleWebKit/537.36 (KHTML, like Gecko) Chrome/86.0.4240.198 Safari/537.36" etag="P1PTCoDHrt2qGrj0kddI" version="13.10.6" type="github">
  <diagram id="KKFBjfn1cVvwCQRU3M8q" name="Page-1">
    <mxGraphModel dx="1422" dy="762" grid="1" gridSize="10" guides="1" tooltips="1" connect="1" arrows="1" fold="1" page="1" pageScale="1" pageWidth="827" pageHeight="1169" math="0" shadow="0">
      <root>
        <mxCell id="0" />
        <mxCell id="1" parent="0" />
        <mxCell id="phCEcMPhIhBnnzDgKtqH-2" value="&lt;font style=&quot;font-size: 18px&quot;&gt;Netsuite&lt;/font&gt;" style="rounded=0;whiteSpace=wrap;html=1;" vertex="1" parent="1">
          <mxGeometry x="320" y="90" width="200" height="70" as="geometry" />
        </mxCell>
        <mxCell id="phCEcMPhIhBnnzDgKtqH-8" style="edgeStyle=orthogonalEdgeStyle;rounded=0;orthogonalLoop=1;jettySize=auto;html=1;entryX=0.5;entryY=1;entryDx=0;entryDy=0;" edge="1" parent="1" source="phCEcMPhIhBnnzDgKtqH-3" target="phCEcMPhIhBnnzDgKtqH-5">
          <mxGeometry relative="1" as="geometry" />
        </mxCell>
        <mxCell id="phCEcMPhIhBnnzDgKtqH-3" value="&lt;font style=&quot;font-size: 18px&quot;&gt;Turboviz&lt;/font&gt;" style="rounded=0;whiteSpace=wrap;html=1;" vertex="1" parent="1">
          <mxGeometry x="320" y="480" width="200" height="80" as="geometry" />
        </mxCell>
        <mxCell id="phCEcMPhIhBnnzDgKtqH-10" style="edgeStyle=orthogonalEdgeStyle;rounded=0;orthogonalLoop=1;jettySize=auto;html=1;entryX=0.5;entryY=1;entryDx=0;entryDy=0;" edge="1" parent="1" source="phCEcMPhIhBnnzDgKtqH-5" target="phCEcMPhIhBnnzDgKtqH-2">
          <mxGeometry relative="1" as="geometry" />
        </mxCell>
        <mxCell id="phCEcMPhIhBnnzDgKtqH-5" value="Time Record is Created for each entry" style="shape=process;whiteSpace=wrap;html=1;backgroundOutline=1;" vertex="1" parent="1">
          <mxGeometry x="360" y="270" width="120" height="60" as="geometry" />
        </mxCell>
        <mxCell id="phCEcMPhIhBnnzDgKtqH-7" value="&lt;font style=&quot;font-size: 24px&quot;&gt;Pay Roll Sync&lt;/font&gt;" style="text;html=1;align=center;verticalAlign=middle;resizable=0;points=[];autosize=1;" vertex="1" parent="1">
          <mxGeometry x="340" y="40" width="160" height="20" as="geometry" />
        </mxCell>
        <mxCell id="phCEcMPhIhBnnzDgKtqH-9" value="&lt;span style=&quot;color: rgb(0, 0, 0); font-family: helvetica; font-size: 12px; font-style: normal; font-weight: 400; letter-spacing: normal; text-align: center; text-indent: 0px; text-transform: none; word-spacing: 0px; background-color: rgb(248, 249, 250); display: inline; float: none;&quot;&gt;Restlet/SuiteTalk&lt;/span&gt;&lt;br style=&quot;color: rgb(0, 0, 0); font-family: helvetica; font-size: 12px; font-style: normal; font-weight: 400; letter-spacing: normal; text-align: center; text-indent: 0px; text-transform: none; word-spacing: 0px; background-color: rgb(248, 249, 250);&quot;&gt;&lt;span style=&quot;color: rgb(0, 0, 0); font-family: helvetica; font-size: 12px; font-style: normal; font-weight: 400; letter-spacing: normal; text-align: center; text-indent: 0px; text-transform: none; word-spacing: 0px; background-color: rgb(248, 249, 250); display: inline; float: none;&quot;&gt;API&lt;/span&gt;" style="text;whiteSpace=wrap;html=1;" vertex="1" parent="1">
          <mxGeometry x="440" y="390" width="110" height="40" as="geometry" />
        </mxCell>
        <mxCell id="phCEcMPhIhBnnzDgKtqH-11" value="Scheduled/ Batched" style="text;html=1;align=center;verticalAlign=middle;resizable=0;points=[];autosize=1;" vertex="1" parent="1">
          <mxGeometry x="290" y="390" width="120" height="20" as="geometry" />
        </mxCell>
      </root>
    </mxGraphModel>
  </diagram>
</mxfile>
